<svg width="709" height="867" viewBox="0 0 709 867" fill="none" xmlns="http://www.w3.org/2000/svg">
    <path
        d="M318 566.734V493.89C318 392.171 320 320.093 324.031 277.656C328.047 235.234 334.703 198.406 344.015 167.156C360.906 112.718 384.765 71.25 415.609 42.75C446.453 14.25 483.203 0 525.875 0C577.828 0 621.344 23.641 656.406 70.891C691.469 118.156 709 179.125 709 253.812C709 356.781 682.172 440.531 628.547 505.093C574.922 569.655 504.406 603.625 417 607V867H318V607C217.062 599.812 138.829 568.078 83.297 511.734C27.766 455.406 0 379.562 0 284.188C0 195.594 18.047 126.079 54.172 75.641C90.281 25.219 139.375 0 201.468 0C231.452 0 258.265 7.703 281.921 23.094C305.577 38.485 326.265 61.985 344.015 93.61L312.921 112.61C300.655 90.657 286.593 74.407 270.749 63.844C254.905 53.281 236.828 48 216.546 48C180.608 48 155.046 65.422 139.828 100.25C124.609 135.094 117 194.938 117 279.812C117 363.421 134.109 429.718 168.359 478.703C202.593 527.688 252.468 557.031 318 566.734ZM417 568C489.094 568 548.109 538.984 594.062 480.922C640.015 422.86 663 347.812 663 255.75C663 192 650.875 141.016 626.641 102.797C602.391 64.578 570.875 45.469 532.094 45.469C489.5 45.469 459.672 64.688 442.61 103.11C425.531 141.531 417 211.406 417 312.75V568Z"
        fill="#4F46E5" />
</svg>